<?xml version="1.0" encoding="utf-8"?>
<!-- Generator: Adobe Illustrator 18.1.0, SVG Export Plug-In . SVG Version: 6.00 Build 0)  -->
<svg version="1.1" id="Layer_3" xmlns="http://www.w3.org/2000/svg" xmlns:xlink="http://www.w3.org/1999/xlink" x="0px" y="0px"
	 viewBox="99.5 104 1080 212" enable-background="new 99.5 104 1080 212" xml:space="preserve">
<g>
	<path fill="none" stroke="#2E1515" stroke-miterlimit="10" d="M99.5,313h126.3v-40.9h7.6c0,0-1.6-11.4,0-11.4s27.1,0,27.1,0v11.4h6
		V252h3.8v-23.3h10.9v-9.2h12.5v13h18.5v-13h18.5v9.8h38v57.5h7.1v-86.4h1.4v-14.9h2.2v-8h1.4v-4.5h2v-5h2.2l2.6-20.6h2.7l2.3,20.6
		h3.1v5h2v4.5h1.5v8h1.5v15h2v86.4h16.2v-32.6h11.3v6.5h2.5v37.8h12.3h4.1v-6h10.3v-58.3h5.8v-3.6h18.8v-9.8h15.7v10.9h15.7v9h6
		v10.5h3.8v8.1h3.6v7.1h2.5v21.2h6v19.5h7.9v-23.7h5.2v-15.2h2.2v-71.7h4.1v-6.3h4.7v-6.8h14.3V180h7.1v4.1h8.5v6.8h6.8v8.5h7.6
		v71.3h12.4v-60l4.2-4.2h5v-6.6h11.4c0,0-1.6,7.9,0,7.9s16.8,0,16.8,0v2h3.8v29.1h2.7V234h4.1v-26.5h35.5v8.1h5.4l2.5-2.5
		c0,0,3.6,0.5,3.6,0c0-0.5,0-4.7,0-4.7h7.4v6.3h12.6v6.3h3.8v10.9v22.8h9.2v-37.5H760v2.5h2.7v-4.7h16.8v-4.7h7.4v8.7h17.9v31.5h4.3
		v-21.7l2.8-2.8l2.6-2.6l5.9-5.9v4.2h12.9v-22h2.7v-16.1h2.2v-2.9h1.2V173h0.9v-6.8h1.5v-4h1.4v-6.4h1.6v-8.7h4v8.7h1.3v6.4h1.6v4
		h1.5v6.8h1.5v7.6h1.6v3h2v16.1h3.6v46.4h8.9v-52.8l16.1-6.5h18.5v45.4h13.4v-7.8h8.5v6.3H945v5.9l4.5-4.5h6.7v-3.6h8.4v-14.3h2
		v-7.1l23-1.8l2.5,2v11.6l2.7,1.4v31.8h3v4.6h2.9v6.8h4.6v-2.4l4-4v-40.7l7.8-2.4h3l9.6-2.4h17.2v60h30.4V313h102.2"/>
	<line fill="none" stroke="#2E1515" stroke-miterlimit="10" x1="388.7" y1="113" x2="388.6" y2="146.9"/>
	<line fill="none" stroke="#2E1515" stroke-miterlimit="10" x1="846.7" y1="124.1" x2="846.7" y2="147.4"/>
</g>
</svg>
